<svg viewBox="0 0 1024 1024" fill="currentColor" width="200" height="200" class="icon" p-id="18318" t="1769841760430" version="1.1" xmlns="http://www.w3.org/2000/svg" xmlns:xlink="http://www.w3.org/1999/xlink">
  <g id="overlay-music" opacity="0.95">
    <!-- stem + flag -->
  </g>
  <path fill="#000" d="M774.2495 134.5016l-98.8191 0c-36.2336 0-65.8793 29.6457-65.8793 65.8794l0 82.3492c0 36.2336 29.6457 65.8794 65.8793 65.8794l98.8191 0c36.2336 0 65.8794-29.6458 65.8794-65.8794l0-82.3492c0-36.2337-29.6458-65.8794-65.8794-65.8794zM807.1892 282.7302c0 18.1168-14.8229 32.9397-32.9397 32.9397l-98.8191 0c-18.1168 0-32.9396-14.8229-32.9396-32.9397l0-82.3492c0-18.1168 14.8228-32.9397 32.9396-32.9397l98.8191 0c18.1168 0 32.9397 14.8229 32.9397 32.9397zM292.6589 678.0248l-94.9949 0c-34.8314 0-63.3299 28.4985-63.3299 63.33l0 79.1624c0 34.8314 28.4985 63.3299 63.3299 63.3299l94.9949 0c34.8314 0 63.3299-28.4985 63.3299-63.3299l0-79.1624c0-34.8315-28.4985-63.33-63.3299-63.33zM324.3238 820.5172c0 17.4157-14.2492 31.6649-31.6649 31.6649l-94.9949 0c-17.4157 0-31.6649-14.2492-31.6649-31.6649l0-79.1624c0-17.4158 14.2492-31.665 31.6649-31.665l94.9949 0c17.4157 0 31.6649 14.2492 31.6649 31.665zM159.2889 546.1333c12.5155 0 22.7555-10.24 22.7555-22.7555l0-125.1556c0-75.0933 61.44-136.5333 136.5334-136.5333l127.4311 0-40.96 40.96c-9.1022 9.1022-9.1022 22.7555 0 31.8578 4.5511 4.5511 10.24 6.8266 15.9289 6.8266 5.6889 0 11.3778-2.2755 15.9289-6.8266l79.6444-79.6445c9.1022-9.1022 9.1022-22.7555 0-31.8578L436.9067 143.36c-9.1023-9.1022-22.7556-9.1022-31.8578 0-9.1022 9.1022-9.1022 22.7556 0 31.8578l40.96 40.96-127.4311 0c-100.1245 0-182.0445 81.92-182.0445 182.0444l0 125.1556c0 12.5155 10.24 22.7555 22.7556 22.7555zM864.7111 477.8667c-12.5155 0-22.7555 10.24-22.7555 22.7555l0 125.1556c0 75.0933-61.44 136.5333-136.5334 136.5333l-127.4311 0 40.96-40.96c9.1022-9.1022 9.1022-22.7555 0-31.8578-9.1022-9.1022-22.7555-9.1022-31.8578 0l-79.6444 79.6445c-9.1022 9.1022-9.1022 22.7555 0 31.8578l79.6444 79.6444c4.5511 4.5511 10.24 6.8267 15.9289 6.8267 5.6889 0 11.3778-2.2756 15.9289-6.8267 9.1022-9.1022 9.1022-22.7556 0-31.8578l-40.96-40.96 127.4311 0c100.1245 0 182.0445-81.92 182.0445-182.0444l0-125.1556c0-12.5155-10.24-22.7555-22.7556-22.7555z" p-id="15346" />
  <g id="overlay-play" opacity="0.95">
    <path d="M384.537 424.9344v190.5941c0 16.444 0 32.8881 14.2281 41.6815s28.936 1.4394 43.644-5.9146l190.669-95.3344c17.1884-8.5943 34.3769-17.1885 34.3769-35.7295s-17.1885-27.1353-34.3769-35.7295l-190.669-95.3345c-14.708-7.354-29.4159-14.708-43.644-5.9145-14.2281 8.7934-14.2281 25.2374-14.2281 41.6814z" />
  </g>
</svg>