<?xml version="1.0" standalone="no"?><!DOCTYPE svg PUBLIC "-//W3C//DTD SVG 1.1//EN" "http://www.w3.org/Graphics/SVG/1.1/DTD/svg11.dtd"><svg t="1769841583480" class="icon" viewBox="0 0 1024 1024" version="1.1" xmlns="http://www.w3.org/2000/svg" p-id="15345" xmlns:xlink="http://www.w3.org/1999/xlink" width="200" height="200"><path d="M796.444444 136.533333H659.911111c-50.062222 0-91.022222 40.96-91.022222 91.022223v113.777777c0 50.062222 40.96 91.022222 91.022222 91.022223h136.533333c50.062222 0 91.022222-40.96 91.022223-91.022223V227.555556c0-50.062222-40.96-91.022222-91.022223-91.022223z m45.511112 204.8c0 25.031111-20.48 45.511111-45.511112 45.511111H659.911111c-25.031111 0-45.511111-20.48-45.511111-45.511111V227.555556c0-25.031111 20.48-45.511111 45.511111-45.511112h136.533333c25.031111 0 45.511111 20.48 45.511112 45.511112v113.777777zM364.088889 591.644444H227.555556c-50.062222 0-91.022222 40.96-91.022223 91.022223v113.777777c0 50.062222 40.96 91.022222 91.022223 91.022223h136.533333c50.062222 0 91.022222-40.96 91.022222-91.022223V682.666667c0-50.062222-40.96-91.022222-91.022222-91.022223z m45.511111 204.8c0 25.031111-20.48 45.511111-45.511111 45.511112H227.555556c-25.031111 0-45.511111-20.48-45.511112-45.511112V682.666667c0-25.031111 20.48-45.511111 45.511112-45.511111h136.533333c25.031111 0 45.511111 20.48 45.511111 45.511111v113.777777zM159.288889 546.133333c12.515556 0 22.755556-10.24 22.755555-22.755555V398.222222c0-75.093333 61.44-136.533333 136.533334-136.533333h127.431111l-40.96 40.96c-9.102222 9.102222-9.102222 22.755556 0 31.857778 4.551111 4.551111 10.24 6.826667 15.928889 6.826666s11.377778-2.275556 15.928889-6.826666l79.644444-79.644445c9.102222-9.102222 9.102222-22.755556 0-31.857778l-79.644444-79.644444c-9.102222-9.102222-22.755556-9.102222-31.857778 0-9.102222 9.102222-9.102222 22.755556 0 31.857778l40.96 40.96H318.577778c-100.124444 0-182.044444 81.92-182.044445 182.044444v125.155556c0 12.515556 10.24 22.755556 22.755556 22.755555zM864.711111 477.866667c-12.515556 0-22.755556 10.24-22.755555 22.755555v125.155556c0 75.093333-61.44 136.533333-136.533334 136.533333H577.991111l40.96-40.96c9.102222-9.102222 9.102222-22.755556 0-31.857778s-22.755556-9.102222-31.857778 0l-79.644444 79.644445c-9.102222 9.102222-9.102222 22.755556 0 31.857778l79.644444 79.644444c4.551111 4.551111 10.24 6.826667 15.928889 6.826667s11.377778-2.275556 15.928889-6.826667c9.102222-9.102222 9.102222-22.755556 0-31.857778L577.991111 807.822222H705.422222c100.124444 0 182.044444-81.92 182.044445-182.044444V500.622222c0-12.515556-10.24-22.755556-22.755556-22.755555z" fill="" p-id="15346"></path></svg>